<?xml version="1.0" encoding="UTF-8"?>
<!-- Generated by Pixelmator Pro 3.6.12 -->
<svg width="492" height="161" viewBox="0 0 492 161" xmlns="http://www.w3.org/2000/svg">
    <style>
    /* light‑mode default */
    #Path, #path1, #path2 {
      fill: #48565e;
    }
    /* dark‑mode override */
    @media (prefers-color-scheme: dark) {
      #Path, #path1, #path2 {
        fill: #ffffff;
      }
    }
    </style>
    <g id="Layer2-2">
        <path id="Path" stroke="none" d="M 126.129997 158.769989 L 70.379997 158.769989 L 70.379997 1.520004 L 126.589996 1.520004 C 142.410004 1.520004 156.020004 4.660004 167.440002 10.930008 C 178.850006 17.199997 187.649994 26.199997 193.820007 37.919998 C 199.990005 49.639999 203.070007 63.670006 203.070007 80 C 203.070007 96.330002 199.990005 110.459991 193.820007 122.229996 C 187.649994 134 178.820007 143.039993 167.330002 149.330002 C 155.839996 155.62999 142.110001 158.769989 126.139999 158.769989 Z M 103.629997 130.279999 L 124.75 130.279999 C 134.580002 130.279999 142.860001 128.529999 149.589996 125.020004 C 156.320007 121.509995 161.389999 116.059998 164.789993 108.660004 C 168.190002 101.259995 169.899994 91.700005 169.899994 79.980003 C 169.899994 68.260002 168.199997 58.860001 164.789993 51.489998 C 161.389999 44.120003 156.330002 38.690002 149.630005 35.209999 C 142.919998 31.729996 134.660004 29.990005 124.830002 29.990005 L 103.639999 29.990005 L 103.639999 130.269989 Z"/>
        <path id="path1" stroke="none" d="M 352.679993 1.520004 L 352.679993 158.769989 L 323.959991 158.769989 L 255.550003 59.800003 L 254.399994 59.800003 L 254.399994 158.769989 L 221.149994 158.769989 L 221.149994 1.520004 L 250.330002 1.520004 L 318.209991 100.419998 L 319.589996 100.419998 L 319.589996 1.520004 L 352.679993 1.520004 Z"/>
        <path id="path2" stroke="none" d="M 458.910004 46.75 C 458.299988 40.559998 455.660004 35.739998 451 32.309998 C 446.339996 28.880005 440.019989 27.169998 432.029999 27.169998 C 426.600006 27.169998 422.019989 27.929993 418.290009 29.429993 C 414.549988 30.940002 411.700012 33.029999 409.730011 35.690002 C 407.76001 38.349998 406.769989 41.370003 406.769989 44.75 C 406.670013 47.57 407.269989 50.020004 408.570007 52.120003 C 409.880005 54.220001 411.679993 56.020004 413.980011 57.529999 C 416.279999 59.040001 418.940002 60.349998 421.970001 61.450005 L 445.779999 67.630005 C 452.640015 69.170006 458.940002 71.209999 464.670013 73.770004 C 470.399994 76.330002 475.369995 79.480003 479.570007 83.209999 C 483.769989 86.950005 487.029999 91.350006 489.359985 96.420006 C 491.690002 101.490005 492.880005 107.300003 492.929993 113.850006 C 492.880005 123.470001 490.429993 131.809998 485.600006 138.839996 C 480.76001 145.87999 473.799988 151.330002 464.709991 155.199997 C 455.619995 159.059998 444.679993 161 431.890015 161 C 419.100006 161 408.149994 159.049988 398.76001 155.169998 C 389.369995 151.279999 382.049988 145.509995 376.799988 137.860001 C 371.549988 130.209991 368.799988 120.720001 368.549988 109.410004 L 400.720001 109.410004 C 401.079987 114.679993 402.600006 119.069992 405.290009 122.580002 C 407.980011 126.089996 411.589996 128.720001 416.119995 130.48999 C 420.649994 132.259995 425.779999 133.139999 431.51001 133.139999 C 437.23999 133.139999 442.040009 132.319992 446.209991 130.679993 C 450.380005 129.039993 453.619995 126.759995 455.920013 123.850006 C 458.220001 120.929993 459.380005 117.580002 459.380005 113.789993 C 459.380005 110.259995 458.339996 107.289993 456.269989 104.880005 C 454.200012 102.470001 451.179993 100.429993 447.209991 98.740005 C 443.23999 97.050003 438.390015 95.510002 432.660004 94.130005 L 415.540009 89.830002 C 402.279999 86.600006 391.809998 81.560005 384.140015 74.700005 C 376.459991 67.840004 372.649994 58.599998 372.700012 46.980003 C 372.649994 37.459999 375.200012 29.139999 380.339996 22.020004 C 385.480011 14.910004 392.559998 9.350006 401.570007 5.360001 C 410.579987 1.369995 420.820007 -0.630005 432.279999 -0.630005 C 443.73999 -0.630005 454.149994 1.369995 462.880005 5.360001 C 471.609985 9.350006 478.399994 14.910004 483.269989 22.020004 C 488.130005 29.139999 490.640015 37.379997 490.790009 46.75 L 458.920013 46.75 Z"/>
        <path id="path3" fill="#0374c3" stroke="none" d="M 0 122.459991 L 0 111.389999 L 34.009998 117.009995 C 37.830002 117.639999 41.169998 119.100006 44.029999 121.399994 C 46.889999 123.690002 49.119999 126.600006 50.720001 130.12999 C 52.32 133.659988 53.110001 137.589996 53.110001 141.919998 C 53.110001 146.25 52.310001 149.929993 50.720001 152.919998 C 49.130001 155.899994 46.900002 158.059998 44.029999 159.389999 C 41.169998 160.720001 37.830002 161.069992 34.009998 160.440002 L 0 154.809998 L 0 143.73999 L 33.060001 149.23999 C 35.049999 149.549988 36.82 149.389999 38.369999 148.769989 C 39.91 148.149994 41.130001 147.110001 42.029999 145.659988 C 42.93 144.209991 43.369999 142.419998 43.369999 140.289993 C 43.369999 138.159988 42.919998 136.199997 42.029999 134.449997 C 41.130001 132.699997 39.919998 131.259995 38.369999 130.12999 C 36.830002 129 35.060001 128.279999 33.060001 127.970001 L 0 122.459991 Z"/>
        <path id="path4" fill="#0374c3" stroke="none" d="M 0 92.540001 L 52.360001 101.229996 L 52.360001 112.119995 L 0 103.429993 L 0 92.540001 Z"/>
        <path id="path5" fill="#0374c3" stroke="none" d="M 3.68 82.790001 L 3.68 71.900002 L 40.290001 77.980003 L 42.630001 77.900002 L 43.790001 76.800003 L 43.77 72.150002 L 51.869999 71.740005 L 52.889999 77.850006 C 52.970001 80.510002 52.619999 82.760002 51.82 84.600006 C 51.02 86.440002 49.77 87.760002 48.09 88.560005 C 46.400002 89.360001 44.279999 89.530006 41.720001 89.07 L 3.67 82.780006 Z M 13.09 66.040001 L 21.27 67.420006 L 21.27 91.07 L 13.09 89.690002 L 13.09 66.040001 Z"/>
        <path id="path6" fill="#0374c3" stroke="none" d="M 52.360001 66.440002 L 13.09 59.900002 L 13.09 49.340004 L 19.940001 50.080002 C 17.5 48.959999 15.66 47.440002 14.4 45.540001 C 13.14 43.639999 12.52 41.590004 12.52 39.389999 L 12.88 36.010002 L 22.57 37.650002 L 21.98 42.200005 C 21.98 43.779999 22.33 45.260002 23.02 46.610001 C 23.709999 47.970001 24.67 49.110001 25.9 50.050003 C 27.129999 50.989998 28.540001 51.599998 30.139999 51.889999 L 52.360001 55.550003 L 52.360001 66.440002 Z"/>
        <path id="path7" fill="#0374c3" stroke="none" d="M 53.110001 27.899994 C 53.110001 30.389999 52.669998 32.550003 51.790001 34.370003 C 50.91 36.190002 49.599998 37.529999 47.869999 38.370003 C 46.139999 39.209999 43.98 39.419998 41.400002 39 C 39.220001 38.629997 37.389999 37.910004 35.919998 36.870003 C 34.450001 35.82 33.25 34.540001 32.34 33.010002 C 31.43 31.479996 30.74 29.800003 30.280001 27.960007 L 27.66 13.419998 C 27.24 12.710007 26.620001 12.279999 25.780001 12.139999 L 25.629999 12.139999 C 24.01 11.880005 22.76 12.169998 21.870001 13.009995 C 20.98 13.850006 20.540001 15.190002 20.540001 17.050003 C 20.540001 18.910004 20.969999 20.639999 21.82 21.979996 C 22.67 23.330002 23.76 24.289993 25.07 24.869995 L 24.25 34.790001 C 21.860001 33.900002 19.799999 32.559998 18.049999 30.759995 C 16.299999 28.960007 14.96 26.789993 14.01 24.25 C 13.06 21.710007 12.59 18.860001 12.59 15.710007 C 12.59 13.539993 12.85 11.509995 13.36 9.600006 C 13.87 7.690002 14.66 6.039993 15.74 4.649994 C 16.809999 3.259995 18.190001 2.25 19.870001 1.619995 C 21.549999 0.990005 23.559999 0.869995 25.889999 1.259995 L 52.380001 5.679993 L 52.380001 16.009995 L 46.93 15.089996 L 50.16 18.470001 C 51.09 19.679993 51.810001 21.070007 52.330002 22.639999 C 52.849998 24.210007 53.110001 25.960007 53.110001 27.910004 Z M 45.59 23.529999 C 45.59 21.949997 45.27 20.479996 44.630001 19.149994 C 43.990002 17.809998 43.130001 16.699997 42.029999 15.830002 C 40.939999 14.949997 39.700001 14.389999 38.32 14.160004 L 34.150002 13.490005 L 36.810001 24.820007 L 38.459999 27.339996 C 39.150002 27.979996 40.009998 28.380005 41.029999 28.550003 C 42.5 28.770004 43.619999 28.410004 44.41 27.479996 C 45.189999 26.539993 45.59 25.229996 45.59 23.539993 Z"/>
    </g>
</svg>
